<svg xmlns="http://www.w3.org/2000/svg" viewBox="0 0 48 48" width="48" height="48">
  <defs>
    <linearGradient id="bgGradient48" x1="0%" y1="0%" x2="100%" y2="100%">
      <stop offset="0%" style="stop-color:#667eea;stop-opacity:1" />
      <stop offset="100%" style="stop-color:#764ba2;stop-opacity:1" />
    </linearGradient>
  </defs>
  
  <circle cx="24" cy="24" r="21" fill="url(#bgGradient48)" stroke="#4a5568" stroke-width="1.5"/>
  
  <g transform="translate(24,24)">
    <circle cx="0" cy="0" r="3" fill="white" stroke="#2d3748" stroke-width="0.8"/>
    
    <g stroke="white" stroke-width="2" fill="none">
      <line x1="0" y1="-3" x2="0" y2="-9"/>
      <circle cx="0" cy="-9" r="2.2" fill="white" stroke="#2d3748" stroke-width="0.8"/>
      
      <line x1="2.1" y1="-2.1" x2="6.4" y2="-6.4"/>
      <circle cx="6.4" cy="-6.4" r="1.8" fill="white" stroke="#2d3748" stroke-width="0.8"/>
      
      <line x1="3" y1="0" x2="9" y2="0"/>
      <circle cx="9" cy="0" r="2.2" fill="white" stroke="#2d3748" stroke-width="0.8"/>
      
      <line x1="2.1" y1="2.1" x2="6.4" y2="6.4"/>
      <circle cx="6.4" cy="6.4" r="1.8" fill="white" stroke="#2d3748" stroke-width="0.8"/>
      
      <line x1="0" y1="3" x2="0" y2="9"/>
      <circle cx="0" cy="9" r="2.2" fill="white" stroke="#2d3748" stroke-width="0.8"/>
      
      <line x1="-2.1" y1="2.1" x2="-6.4" y2="6.4"/>
      <circle cx="-6.4" cy="6.4" r="1.8" fill="white" stroke="#2d3748" stroke-width="0.8"/>
      
      <line x1="-3" y1="0" x2="-9" y2="0"/>
      <circle cx="-9" cy="0" r="2.2" fill="white" stroke="#2d3748" stroke-width="0.8"/>
      
      <line x1="-2.1" y1="-2.1" x2="-6.4" y2="-6.4"/>
      <circle cx="-6.4" cy="-6.4" r="1.8" fill="white" stroke="#2d3748" stroke-width="0.8"/>
    </g>
    
    <g transform="translate(6, -6)">
      <circle cx="0" cy="0" r="3" fill="#e53e3e" stroke="#c53030" stroke-width="0.5"/>
      <text x="0" y="1" text-anchor="middle" font-family="Arial, sans-serif" font-size="4" font-weight="bold" fill="white">!</text>
    </g>
  </g>
  
  <text x="24" y="42" text-anchor="middle" font-family="Arial, sans-serif" font-size="4" font-weight="bold" fill="white">DM</text>
</svg>