<svg xmlns="http://www.w3.org/2000/svg" viewBox="0 0 32 32" width="32" height="32">
  <defs>
    <linearGradient id="bgGradient32" x1="0%" y1="0%" x2="100%" y2="100%">
      <stop offset="0%" style="stop-color:#667eea;stop-opacity:1" />
      <stop offset="100%" style="stop-color:#764ba2;stop-opacity:1" />
    </linearGradient>
  </defs>
  
  <circle cx="16" cy="16" r="14" fill="url(#bgGradient32)" stroke="#4a5568" stroke-width="1"/>
  
  <g transform="translate(16,16)">
    <circle cx="0" cy="0" r="2" fill="white" stroke="#2d3748" stroke-width="0.5"/>
    
    <g stroke="white" stroke-width="1.5" fill="none">
      <line x1="0" y1="-2" x2="0" y2="-6"/>
      <circle cx="0" cy="-6" r="1.5" fill="white" stroke="#2d3748" stroke-width="0.5"/>
      
      <line x1="1.4" y1="-1.4" x2="4.2" y2="-4.2"/>
      <circle cx="4.2" cy="-4.2" r="1.2" fill="white" stroke="#2d3748" stroke-width="0.5"/>
      
      <line x1="2" y1="0" x2="6" y2="0"/>
      <circle cx="6" cy="0" r="1.5" fill="white" stroke="#2d3748" stroke-width="0.5"/>
      
      <line x1="1.4" y1="1.4" x2="4.2" y2="4.2"/>
      <circle cx="4.2" cy="4.2" r="1.2" fill="white" stroke="#2d3748" stroke-width="0.5"/>
      
      <line x1="0" y1="2" x2="0" y2="6"/>
      <circle cx="0" cy="6" r="1.5" fill="white" stroke="#2d3748" stroke-width="0.5"/>
      
      <line x1="-1.4" y1="1.4" x2="-4.2" y2="4.2"/>
      <circle cx="-4.2" cy="4.2" r="1.2" fill="white" stroke="#2d3748" stroke-width="0.5"/>
      
      <line x1="-2" y1="0" x2="-6" y2="0"/>
      <circle cx="-6" cy="0" r="1.5" fill="white" stroke="#2d3748" stroke-width="0.5"/>
      
      <line x1="-1.4" y1="-1.4" x2="-4.2" y2="-4.2"/>
      <circle cx="-4.2" cy="-4.2" r="1.2" fill="white" stroke="#2d3748" stroke-width="0.5"/>
    </g>
    
    <g transform="translate(4, -4)">
      <circle cx="0" cy="0" r="2" fill="#e53e3e" stroke="#c53030" stroke-width="0.3"/>
      <text x="0" y="0.5" text-anchor="middle" font-family="Arial, sans-serif" font-size="2.5" font-weight="bold" fill="white">!</text>
    </g>
  </g>
</svg>